<svg class="w-10 h-10" viewBox="0 0 40 40" fill="none" xmlns="http://www.w3.org/2000/svg">
  <!-- Gradient background circle -->
  <defs>
    <linearGradient id="userBg" x1="0%" y1="0%" x2="100%" y2="100%">
      <stop offset="0%" style="stop-color:#3B82F6;stop-opacity:1" />
      <stop offset="100%" style="stop-color:#9333EA;stop-opacity:1" />
    </linearGradient>
    <linearGradient id="userIcon" x1="0%" y1="0%" x2="100%" y2="100%">
      <stop offset="0%" style="stop-color:#FFFFFF;stop-opacity:1" />
      <stop offset="100%" style="stop-color:#F8FAFC;stop-opacity:0.9" />
    </linearGradient>
  </defs>
  
  <!-- Background circle with gradient -->
  <circle cx="20" cy="20" r="20" fill="url(#userBg)"/>
  
  <!-- User icon with refined details -->
  <g transform="translate(8, 6)">
    <!-- Hat/Crown element -->
    <path d="M12 2C13.1 2 14 2.9 14 4C14 5.1 13.1 6 12 6C10.9 6 10 5.1 10 4C10 2.9 10.9 2 12 2Z" fill="url(#userIcon)"/>
    
    <!-- Head -->
    <circle cx="12" cy="10.5" r="3.5" fill="url(#userIcon)"/>
    
    <!-- Body -->
    <path d="M12 15C7.58 15 4 18.58 4 23V26C4 26.55 4.45 27 5 27H19C19.55 27 20 26.55 20 26V23C20 18.58 16.42 15 12 15Z" fill="url(#userIcon)"/>
    
    <!-- Subtle highlights for depth -->
    <circle cx="12" cy="10.5" r="2" fill="rgba(255,255,255,0.3)"/>
    <path d="M12 15C9.24 15 7 17.24 7 20V23C7 23.55 7.45 24 8 24H16C16.55 24 17 23.55 17 24V20C17 17.24 14.76 15 12 15Z" fill="rgba(255,255,255,0.2)"/>
  </g>
  
  <!-- Subtle shadow/border -->
  <circle cx="20" cy="20" r="19.5" fill="none" stroke="rgba(255,255,255,0.2)" stroke-width="1"/>
</svg>
